PathFileType	4	(X/Y/Z)	/Users/visionmauri/4_2_1_f_1_Sports2D/4_2_1_f_1_Sports2D_px_person00.trc
DataRate	CameraRate	NumFrames	NumMarkers	Units	OrigDataRate	OrigDataStartFrame	OrigNumFrames
30.0	30.0	6	22	m	30.0	47	382
Frame#	Time	Hip			RHip			RKnee			RAnkle			RBigToe			RSmallToe			RHeel			LHip			LKnee			LAnkle			LBigToe			LSmallToe			LHeel			Neck			Head			Nose			RShoulder			RElbow			RWrist			LShoulder			LElbow			LWrist			
		X1	Y1	Z1	X2	Y2	Z2	X3	Y3	Z3	X4	Y4	Z4	X5	Y5	Z5	X6	Y6	Z6	X7	Y7	Z7	X8	Y8	Z8	X9	Y9	Z9	X10	Y10	Z10	X11	Y11	Z11	X12	Y12	Z12	X13	Y13	Z13	X14	Y14	Z14	X15	Y15	Z15	X16	Y16	Z16	X17	Y17	Z17	X18	Y18	Z18	X19	Y19	Z19	X20	Y20	Z20	X21	Y21	Z21	X22	Y22	Z22
47	1.5707786526684162	472.4334074515703	860.1937514997209	0.0	538.1384421412713	861.0851296192831	0.0	579.035266043013	1047.2008392666382	0.0	582.4102883875298	1070.9294520351593	0.0	595.5751211519623	1079.7858228477003	0.0	614.1912764159198	1081.0447379776583	0.0	580.0855191422539	1082.2845210477435	0.0	412.12106532360247	875.4934892768779	0.0	442.0382780866279	1141.041945344267	0.0	461.13332655502626	1405.7958768592541	0.0	453.87346612368555	1439.4319843957244	0.0	426.6110364311728	1449.6453287586476	0.0	469.19251956448034	1447.724989692727	0.0	480.62806047655033	535.4767116124368	0.0	501.0117843709536	426.39115150894327	0.0	511.6970917802962	492.3327800915428	0.0	577.750671603785	565.5894694875444	0.0	664.0299234518429	715.547591849085	0.0	767.8065347008765	847.1471457952381	0.0	376.9805125396442	574.1841013304887	0.0	342.2396125090425	749.9304806958746	0.0	372.0276374631644	853.5080113120476	0.0
48	1.6041994750656166	475.75791755579394	859.6274693347098	0.0	540.5371738171974	861.5092272166198	0.0	579.2600897323762	1049.4148063420414	0.0	582.3710778577622	1073.5999201866853	0.0	595.6354588777796	1085.4500584661912	0.0	612.8351219110045	1082.5569903850244	0.0	581.4137169639666	1084.6538206117132	0.0	414.9849728426148	874.5727655732942	0.0	443.820784758961	1140.8418238657107	0.0	461.95946832975216	1405.1965330293292	0.0	454.38136031028915	1442.2993251361122	0.0	427.56116754977705	1450.200263997699	0.0	468.9044431861388	1447.2989056039057	0.0	483.79854598629066	535.5390938230828	0.0	502.29379291978546	426.76931819641317	0.0	510.8492317618395	492.1283914048741	0.0	582.5394634407107	566.5626970458783	0.0	667.1260584450623	714.0326782142639	0.0	767.2153823298349	845.928547820225	0.0	380.01600241302117	574.7423027477398	0.0	343.03262910408256	749.2359260174154	0.0	371.3784874460066	854.7184032107689	0.0
49	1.637620297462817	478.3883332473999	860.8573359024525	0.0	543.28564889102	864.041216076902	0.0	579.515463941344	1049.1545959441085	0.0	583.4097467946609	1074.0150636480928	0.0	595.1596001859133	1089.1792491258664	0.0	612.762054126263	1084.9810763439423	0.0	582.7376695797633	1086.0226562554706	0.0	418.6896751158516	875.4425891236541	0.0	445.6091478532772	1140.7397452757007	0.0	462.5034957856713	1404.924091709802	0.0	454.994598524194	1443.8292560460843	0.0	428.24660046297186	1449.8523413627597	0.0	468.8860435226465	1447.2510626788796	0.0	488.26640754547316	535.3918167093285	0.0	505.3400305279141	427.30500446596653	0.0	511.3762681043392	491.1469285010606	0.0	586.2506166638183	567.5206689202461	0.0	671.2756018500911	711.0066141647524	0.0	766.9871543885134	843.1758963924498	0.0	383.36859900396814	575.5933215731244	0.0	343.2653140876548	747.7612558546518	0.0	373.3165138674276	859.0242311057212	0.0
50	1.6710411198600172	481.7692259139037	862.4332779053376	0.0	546.3769036753414	867.222049550473	0.0	579.8868704427324	1046.8087334157387	0.0	585.1449346400995	1074.9220106233001	0.0	594.5974462482832	1093.6630251170673	0.0	613.1966226679635	1086.426446626711	0.0	583.9952752436441	1086.6745671117822	0.0	423.07118881426663	877.6311585692719	0.0	446.9218626024729	1140.6743219043205	0.0	462.9923401529972	1404.655104502065	0.0	454.3000605445775	1441.5903084288964	0.0	427.4371081526755	1448.8747711559156	0.0	469.9178594710559	1447.5321345280092	0.0	493.5312672340281	535.2546837682311	0.0	509.89396395967793	428.59114548283867	0.0	515.0935650753539	490.3025258907802	0.0	588.9936280548698	568.8322613103014	0.0	675.628086786631	707.0791738033683	0.0	766.1564741353509	839.4934413618366	0.0	387.44186388522553	576.7386126620905	0.0	343.4235343275585	745.0210182260851	0.0	374.000000419654	863.2335198630594	0.0
51	1.7044619422572176	486.417530890767	860.4903246914153	0.0	549.8961267195263	866.4849391202403	0.0	580.2726922003689	1044.3746909183462	0.0	586.9234446758113	1076.4639749177077	0.0	595.8153143330841	1098.413647008061	0.0	614.094794263208	1084.984118226765	0.0	585.1149115377339	1087.0114202186132	0.0	427.19564926295715	877.0719114191694	0.0	447.7183323398902	1140.3488565879313	0.0	463.51512592424086	1404.357592688256	0.0	453.8986816993871	1437.4065019673994	0.0	426.40857469687654	1448.5895946542967	0.0	470.9062455715927	1447.6255835611216	0.0	498.6757302481498	535.6596403131609	0.0	515.6259702055792	430.4290143616098	0.0	522.1228903222275	490.83706206435136	0.0	591.8316005454939	570.3967234942598	0.0	679.7252167851871	703.1523760102125	0.0	764.5696449589332	835.9699007014991	0.0	392.3554913925808	577.6225226967495	0.0	344.4525593555138	741.5046677389571	0.0	372.90595168261126	862.4514238748582	0.0
52	1.737882764654418	491.414072810629	856.7476378668707	0.0	553.9203402658779	862.6488192142223	0.0	581.2105233914345	1041.7830037401886	0.0	588.8629944471699	1075.6963335511148	0.0	598.6192716109903	1095.5480379090093	0.0	616.1059554935221	1081.004212455017	0.0	586.3051830649081	1087.0648917161084	0.0	431.2680456594516	873.880111708245	0.0	448.8278503392658	1139.219413875695	0.0	463.72004863411547	1403.1791754556857	0.0	456.0153240046115	1435.1773875720871	0.0	426.68579643351705	1449.724510616571	0.0	470.48367311336153	1446.4272664621058	0.0	503.83351755960524	536.1136748332751	0.0	522.4491386116438	431.2929427083156	0.0	529.0377701222213	492.4918712044217	0.0	595.434091703652	571.3746197406532	0.0	683.3907598978775	699.8529163396479	0.0	763.2489039187577	832.9276549486017	0.0	398.1212828566679	576.9471786106568	0.0	346.45313003571044	738.2977608917655	0.0	371.6533394762088	858.5238551994235	0.0
